# xmcd
#
# Track frame offsets:
#	150
#	20772
#	34490
#	48450
#	66127
#	80307
#	90157
#	106145
#	126557
#	138600
#	151320
#	163510
#	185107
#
# Disc length: 2705
#
# Revision: 2
# Processed by: cddbd v1.5.1PL0 Copyright (c) Steve Scherf et al.
# Submitted via: audiograbber 1.82.02
# Normalized: r1:DSETVAR1,TDELIM( - )
#
DISCID=b00a8f0d
DTITLE=Various Artist - Can't Keep From Crying
DYEAR=1900
DGENRE=Blues
TTITLE0=Big Joe Williams - A Man Amongst Men
TTITLE1=James and Fannie Brewer - I Want To Know Why
TTITLE2=John Lee Granderson - A Man For The Nation
TTITLE3=Otis Spann - Say Day In Texas
TTITLE4=Mary Ross - President Kennedy Gave His Life
TTITLE5=Bill Jackson - The 22nd Day Of November
TTITLE6=James Brewer - Why Did He Have To Go
TTITLE7=Johnny Young - I Tried Not To Cry
TTITLE8=Avery Brady - Poor Kennedy
TTITLE9=Fannie Brewer - When We Got The Message
TTITLE10=Jimmy Brown - He Was Loved By All The People
TTITLE11=Johnny Young - Tribute To J.F.K.
TTITLE12=Avery Brady - Poor Kennedy #2
EXTD=
EXTT0=
EXTT1=
EXTT2=
EXTT3=
EXTT4=
EXTT5=
EXTT6=
EXTT7=
EXTT8=
EXTT9=
EXTT10=
EXTT11=
EXTT12=
PLAYORDER=
